<svg id="Capa_2" data-name="Capa 2" xmlns="http://www.w3.org/2000/svg" viewBox="0 0 112 112">
  <defs>
    <style>
      .cls-1, .cls-2 {
        fill: #fff;
      }

      .cls-2 {
        stroke: #fff;
        stroke-linecap: round;
        stroke-linejoin: round;
        stroke-width: 2.55px;
      }

      .cls-3 {
        fill: #020a0a;
      }
    </style>
  </defs>
  <g id="Capa_1-2" data-name="Capa 1">
    <g>
      <circle class="cls-3" cx="56" cy="56" r="56"/>
      <g>
        <path class="cls-2" d="M56.5,47.5c-.17.01-.31.03-.47-.07-.47-.3-1.33-6.07-1.88-6.96l-7.34-1.96.11-.39,7.08-1.73c.65-.84,1.55-7.36,2.12-7.49.3-.07.42.38.5.58.47,1.21,1.1,6.23,1.66,6.8l7.45,2.08-7.45,2.07-1.77,7.07Z"/>
        <g>
          <path class="cls-1" d="M43.03,49.14c1.83,3.69,8.95,4.92,12.56,3.99,5.04-1.31,9.14-2.62,12.55-6.79.76-.93.95-1.85,1.44-2.89,1.24-2.66,2.71-5.62,5.41-7.1,1.27-.69,3.89-1.2,4.19.79.12.8-.01.56-.41.91-1.44,1.25-2.69,2.92-3.77,4.48-1.71,2.48-2.68,4.79-5.03,6.81-1.39,1.2-2.91,2.26-4.3,3.46-.17.06-.99-.36-1.31-.44-.4-.09-.77-.14-1.18-.11,1.5,1.23,3.15,2.34,4.2,4.01.25.39.95,1.66,1.03,2.06.1.53-.33,1.14-.11,1.69.41-.72.85-1.41,1.34-2.08.84-1.16,2.47-2.75,3.07-3.93.27-.53.41-1.53.61-2.14.8-2.43,1.92-5.22,4.03-6.8,1.99-1.5,5.14-1.91,5.41,1.33.24,2.84-2.78,9.2-3.87,12.13-1.99,5.34-1.97,6.79-7.3,9.62-2.91,1.55-5.92,2.92-8.87,4.39-4.71,2.35-11.69,6.68-17.02,6.24-1.67-.14-3.55-.96-5.13-1.5,1.44,1.72,3.63,2.62,5.81,2.99h2.66c.51,2.21-.51,4.61-2.56,5.63-2.58,1.28-5.77.24-8.19-.96-4.11-2.04-11.4-7.69-12.56-12.28-.76-3.02.91-5.45,3.78-6.29.7,1.92,1.7,3.99,3.63,4.92-.23-.54-.56-1.04-.79-1.58-2.02-4.65-2.56-9.58-1.37-14.53,1.14-4.78,3.89-8.72,2.89-13.9-.12-.64-.38-1.29-.47-1.95-.3-2.29.41-4.45,3.03-4.62,4.32-.29,7.08,3.92,6.89,7.88-.11,2.22-1.39,4.4-.31,6.59ZM53.92,59c-6.09-1.28-14.04,2.16-14.59,9,.6-.71,1-1.57,1.55-2.33,1.97-2.72,4.46-4.33,7.64-5.36l5.4-1.31Z"/>
          <path class="cls-1" d="M86.48,52.63c-1.12,1.22-2.37,2.35-3.46,3.6-.99,1.13-1.84,2.4-2.83,3.52.81-2.86,2.22-5.54,3.23-8.31.76-2.07,1.32-4.12.87-6.34,1.47-.88,3.74-1.43,4.94.16,1.8,2.4-1.19,5.69-2.74,7.38Z"/>
          <path class="cls-1" d="M75.09,45.09c.17-.4.46-.8.72-1.16,1.93-2.74,5.51-6.99,9.24-6.5,1.14.15,2.12,1.55,2.03,2.68-.04.51-.71,2.48-1.11,2.72-.25.15-.87.25-1.2.39-.36.15-.7.37-1.04.54-.19,0-.34-.36-.5-.51-1.72-1.59-4.2-1.18-6.04-.03-.8.5-1.43,1.21-2.09,1.87Z"/>
          <path class="cls-1" d="M69.09,56.67c-.33-1.35-1.49-2.19-2.34-3.21,2.39-1.82,4.9-3.57,6.75-5.96-.39.9-.82,1.8-1.15,2.73-.37,1.04-.59,2.31-1.03,3.3-.21.47-1.69,2.7-2.04,3.05-.07.07-.08.12-.2.09Z"/>
        </g>
      </g>
    </g>
  </g>
</svg>
